<?xml version="1.0" standalone="no"?>
<!DOCTYPE svg PUBLIC "-//W3C//DTD SVG 20010904//EN"
 "http://www.w3.org/TR/2001/REC-SVG-20010904/DTD/svg10.dtd">
<svg version="1.0" xmlns="http://www.w3.org/2000/svg"
 width="640.000000pt" height="640.000000pt" viewBox="0 0 640.000000 640.000000"
 preserveAspectRatio="xMidYMid meet">
<metadata>
Created by potrace 1.14, written by Peter Selinger 2001-2017
</metadata>
<g transform="translate(0.000000,640.000000) scale(0.100000,-0.100000)"
fill="#000000" stroke="none">
<path d="M4828 5791 l-366 -367 56 -60 c97 -103 126 -136 187 -214 33 -41 63
-76 68 -78 4 -2 7 -8 7 -14 0 -6 11 -24 25 -42 38 -47 37 -45 97 -141 113
-181 191 -338 261 -525 33 -89 83 -247 92 -287 3 -16 11 -52 31 -138 3 -11 7
-30 10 -42 2 -13 7 -35 10 -50 3 -16 5 -35 6 -43 0 -8 3 -37 8 -65 9 -50 20
-147 26 -240 5 -60 5 -434 0 -490 -10 -122 -21 -223 -30 -270 -2 -11 -7 -40
-11 -65 -9 -52 -8 -51 -30 -153 -9 -43 -29 -121 -46 -175 -16 -53 -32 -106
-34 -117 -3 -11 -9 -29 -14 -40 -5 -11 -23 -58 -41 -105 -40 -105 -148 -328
-192 -395 -17 -27 -32 -52 -33 -55 -4 -19 -164 -245 -202 -285 -7 -8 -13 -16
-13 -20 0 -4 -6 -12 -12 -19 -7 -7 -38 -41 -68 -76 -30 -35 -72 -80 -92 -101
-21 -21 -38 -42 -38 -46 0 -4 122 -127 271 -273 150 -146 314 -307 366 -357
52 -51 98 -93 102 -93 15 0 143 139 278 301 360 435 645 1013 778 1579 14 55
65 324 70 365 3 28 8 64 11 80 5 34 9 78 21 210 15 175 8 675 -12 835 -2 19
-6 53 -9 75 -5 49 -15 121 -21 155 -3 14 -7 41 -10 60 -3 19 -10 55 -15 80
-10 44 -15 74 -27 135 -3 17 -8 37 -13 45 -6 13 -18 66 -21 95 0 6 -7 26 -15
45 -8 19 -15 37 -15 40 0 3 -5 23 -11 45 -6 22 -12 42 -12 45 -1 3 -9 28 -20
55 -10 28 -29 82 -43 120 -14 39 -31 84 -39 100 -7 17 -27 64 -45 105 -17 41
-52 116 -77 165 -25 50 -46 92 -47 95 -1 3 -11 21 -23 40 -12 19 -28 47 -35
63 -6 15 -16 27 -20 27 -5 0 -6 4 -3 9 3 5 -1 14 -9 21 -8 7 -15 19 -15 26 0
8 -4 14 -10 14 -5 0 -10 4 -10 10 0 29 -247 369 -382 525 -93 107 -224 246
-230 244 -2 -1 -168 -166 -370 -368z"/>
<path d="M3888 5117 c-137 -132 -393 -378 -544 -522 l-94 -90 50 -53 c122
-129 234 -289 303 -432 22 -47 42 -89 44 -95 1 -5 16 -49 32 -96 60 -175 83
-325 84 -539 0 -238 -15 -361 -67 -535 -10 -33 -19 -64 -21 -70 -6 -28 -74
-183 -101 -232 -57 -101 -146 -230 -205 -298 -15 -16 -43 -48 -63 -70 -36 -40
-44 -60 -27 -67 8 -3 165 -148 296 -273 23 -22 99 -94 170 -160 70 -66 144
-136 165 -155 20 -19 58 -54 83 -77 l45 -42 81 87 c186 201 306 372 442 629
27 50 49 98 49 107 0 8 6 21 13 28 7 7 16 22 19 33 4 11 26 76 51 145 40 114
84 273 103 375 5 22 9 42 9 45 1 3 5 32 9 65 5 33 10 69 12 80 24 123 23 577
-1 743 -20 132 -25 164 -30 171 -2 4 -6 26 -10 51 -4 25 -8 47 -10 51 -2 3 -7
21 -10 40 -11 61 -103 334 -136 403 -10 22 -19 45 -19 52 0 7 -3 14 -8 16 -4
2 -27 44 -51 93 -25 50 -47 92 -50 95 -7 6 -28 43 -48 81 -7 15 -20 32 -28 39
-8 7 -15 17 -15 22 0 8 -36 64 -50 78 -3 3 -25 32 -49 65 -25 33 -47 62 -50
65 -4 3 -26 30 -51 60 -24 30 -78 89 -120 132 l-76 76 -126 -121z"/>
<path d="M414 4649 c-52 -9 -155 -51 -196 -80 -86 -60 -152 -148 -189 -249
-23 -63 -24 -74 -24 -365 l0 -300 1035 -1 1035 -1 58 -23 c101 -39 165 -100
219 -210 28 -58 31 -214 5 -273 -9 -20 -16 -40 -16 -42 -1 -7 -16 -26 -70 -86
-28 -32 -68 -61 -110 -82 l-66 -32 -795 -2 c-437 -2 -909 -3 -1048 -3 l-252 0
0 -914 c0 -1003 -2 -957 61 -1076 152 -285 533 -351 777 -133 48 43 122 149
122 175 0 9 4 19 9 22 5 3 12 23 16 43 5 21 10 45 12 53 3 8 5 197 6 420 l2
405 50 2 c28 2 295 4 595 6 300 2 556 7 570 10 25 7 52 12 100 21 30 6 139 39
195 60 80 29 285 146 293 167 2 5 8 9 13 9 29 0 261 235 327 332 28 42 52 81
52 86 0 6 4 12 8 14 14 5 79 151 106 234 37 114 51 186 62 299 6 58 9 208 4
225 0 3 -3 34 -5 70 -3 36 -7 76 -10 90 -3 14 -8 36 -11 50 -19 94 -94 313
-113 330 -3 3 -17 25 -30 50 -25 47 -108 164 -151 214 -52 60 -167 169 -220
209 -30 23 -57 44 -60 47 -66 67 -355 186 -520 216 -19 3 -46 8 -60 11 -41 8
-1741 10 -1786 2z"/>
</g>
</svg>
